<?xml version="1.0"?>
<svg width="256" height="256" xmlns="http://www.w3.org/2000/svg" xmlns:svg="http://www.w3.org/2000/svg" xml:space="preserve">
 <g class="layer">
  <title>Tcl9 Icon</title>
  <g id="svg_8" transform="scale(0.04654545, 0.04654545)">
   <path d="m5355,2741c0,1437 -1165,2601 -2602,2601" fill="none" id="svg_9" stroke="#696969" stroke-width="14"/>
   <path d="m152,2741c0,-1437 1164,-2602 2601,-2602c303,0 550,55 820,150l42,-6c629,-187 1016,-213 1213,-208c110,3 161,16 161,16c-368,41 -1396,274 -2236,1150c-429,398 -1008,1473 -1162,2376c0,0 318,-554 753,-1097c394,-458 833,-915 1133,-1022c-259,253 -1527,1570 -2261,3342c-645,-474 -1064,-1238 -1064,-2099z" fill="#BADA55" id="svg_10"/>
   <path d="m5355,2741c0,1437 -1165,2601 -2602,2601c-466,0 -904,-122 -1283,-337c0,0 -314,460 -321,480c2,-7 1,-42 8,-63c7,-22 209,-621 259,-695c51,-75 226,-609 518,-591c291,18 326,209 348,266c0,0 165,-302 -178,-480c0,0 128,28 181,42c52,15 243,89 540,-74c296,-162 531,-457 595,-552c65,-96 85,-117 91,-160c0,0 -526,-51 -550,-198c0,0 326,52 481,29c155,-24 293,-11 599,-285s605,-531 670,-815c0,0 -364,333 -835,243c0,0 385,-90 535,-180c149,-90 320,-164 458,-389c0,0 98,-160 103,-171c235,391 383,839 383,1329z" fill="#696969" id="svg_11"/>
  </g>
 </g>
</svg>
